<svg version="1.1" viewBox="0.0 0.0 600.0 371.0" fill="none" stroke="none" stroke-linecap="square" stroke-miterlimit="10" width="600" height="371" xmlns:xlink="http://www.w3.org/1999/xlink" xmlns="http://www.w3.org/2000/svg"><path fill="#ffffff" d="M0 0L600.0 0L600.0 371.0L0 371.0L0 0Z" fill-rule="nonzero"/><path stroke="#cccccc" stroke-width="1.0" stroke-linecap="butt" d="M77.5 321.5L581.5 321.5" fill-rule="nonzero"/><path fill="#eeeeee" d="M68.5 330.5L77.5 322.5L581.5 322.5L572.5 330.5Z" fill-rule="nonzero"/><path stroke="#cccccc" stroke-width="1.0" stroke-linecap="butt" d="M77.5 275.5L581.5 275.5" fill-rule="nonzero"/><path stroke="#cccccc" stroke-width="1.0" stroke-linecap="butt" d="M77.5 229.5L581.5 229.5" fill-rule="nonzero"/><path stroke="#cccccc" stroke-width="1.0" stroke-linecap="butt" d="M77.5 183.5L581.5 183.5" fill-rule="nonzero"/><path stroke="#cccccc" stroke-width="1.0" stroke-linecap="butt" d="M77.5 137.5L581.5 137.5" fill-rule="nonzero"/><path stroke="#cccccc" stroke-width="1.0" stroke-linecap="butt" d="M77.5 91.5L581.5 91.5" fill-rule="nonzero"/><path stroke="#000000" stroke-width="1.0" stroke-linecap="butt" stroke-opacity="0.0" d="M77.5 289.5L581.5 289.5" fill-rule="nonzero"/><path stroke="#000000" stroke-width="1.0" stroke-linecap="butt" stroke-opacity="0.0" d="M77.5 243.5L581.5 243.5" fill-rule="nonzero"/><path stroke="#000000" stroke-width="1.0" stroke-linecap="butt" stroke-opacity="0.0" d="M77.5 197.5L581.5 197.5" fill-rule="nonzero"/><path stroke="#000000" stroke-width="1.0" stroke-linecap="butt" stroke-opacity="0.0" d="M77.5 151.5L581.5 151.5" fill-rule="nonzero"/><path stroke="#000000" stroke-width="1.0" stroke-linecap="butt" stroke-opacity="0.0" d="M77.5 104.5L581.5 104.5" fill-rule="nonzero"/><path stroke="#000000" stroke-width="1.0" stroke-linecap="butt" d="M68.5 332.5L68.5 88.5" fill-rule="nonzero"/><clipPath id="id_0"><path d="M68.55 88.28333L581.45 88.28333L581.45 332.45L68.55 332.45L68.55 88.28333Z" clip-rule="nonzero"/></clipPath><path fill="#2b569f" clip-path="url(#id_0)" d="M118.0 323.0L118.0 332.0L112.0 338.0L112.0 329.0Z" fill-rule="nonzero"/><path fill="#689df6" clip-path="url(#id_0)" d="M112.0 329.0L91.0 329.0L97.0 323.0L118.0 323.0Z" fill-rule="nonzero"/><path stroke="#000000" stroke-width="2.0" stroke-linecap="butt" stroke-opacity="0.0" clip-path="url(#id_0)" d="M112.0 338.0L91.0 338.0L91.0 329.0L112.0 329.0Z" fill-rule="nonzero"/><path fill="#4285f4" clip-path="url(#id_0)" d="M112.0 338.0L91.0 338.0L91.0 329.0L112.0 329.0Z" fill-rule="nonzero"/><path fill="#2b569f" clip-path="url(#id_0)" d="M187.0 291.0L187.0 332.0L181.0 338.0L181.0 297.0Z" fill-rule="nonzero"/><path fill="#689df6" clip-path="url(#id_0)" d="M181.0 297.0L160.0 297.0L166.0 291.0L187.0 291.0Z" fill-rule="nonzero"/><path stroke="#000000" stroke-width="2.0" stroke-linecap="butt" stroke-opacity="0.0" clip-path="url(#id_0)" d="M181.0 338.0L160.0 338.0L160.0 297.0L181.0 297.0Z" fill-rule="nonzero"/><path fill="#4285f4" clip-path="url(#id_0)" d="M181.0 338.0L160.0 338.0L160.0 297.0L181.0 297.0Z" fill-rule="nonzero"/><path fill="#2b569f" clip-path="url(#id_0)" d="M257.0 265.0L257.0 332.0L251.0 338.0L251.0 271.0Z" fill-rule="nonzero"/><path fill="#689df6" clip-path="url(#id_0)" d="M251.0 271.0L230.0 271.0L236.0 265.0L257.0 265.0Z" fill-rule="nonzero"/><path stroke="#000000" stroke-width="2.0" stroke-linecap="butt" stroke-opacity="0.0" clip-path="url(#id_0)" d="M251.0 338.0L230.0 338.0L230.0 271.0L251.0 271.0Z" fill-rule="nonzero"/><path fill="#4285f4" clip-path="url(#id_0)" d="M251.0 338.0L230.0 338.0L230.0 271.0L251.0 271.0Z" fill-rule="nonzero"/><path fill="#2b569f" clip-path="url(#id_0)" d="M327.0 256.0L327.0 332.0L321.0 338.0L321.0 262.0Z" fill-rule="nonzero"/><path fill="#689df6" clip-path="url(#id_0)" d="M321.0 262.0L300.0 262.0L306.0 256.0L327.0 256.0Z" fill-rule="nonzero"/><path stroke="#000000" stroke-width="2.0" stroke-linecap="butt" stroke-opacity="0.0" clip-path="url(#id_0)" d="M321.0 338.0L300.0 338.0L300.0 262.0L321.0 262.0Z" fill-rule="nonzero"/><path fill="#4285f4" clip-path="url(#id_0)" d="M321.0 338.0L300.0 338.0L300.0 262.0L321.0 262.0Z" fill-rule="nonzero"/><path fill="#2b569f" clip-path="url(#id_0)" d="M397.0 230.0L397.0 332.0L391.0 338.0L391.0 236.0Z" fill-rule="nonzero"/><path fill="#689df6" clip-path="url(#id_0)" d="M391.0 236.0L370.0 236.0L376.0 230.0L397.0 230.0Z" fill-rule="nonzero"/><path stroke="#000000" stroke-width="2.0" stroke-linecap="butt" stroke-opacity="0.0" clip-path="url(#id_0)" d="M391.0 338.0L370.0 338.0L370.0 236.0L391.0 236.0Z" fill-rule="nonzero"/><path fill="#4285f4" clip-path="url(#id_0)" d="M391.0 338.0L370.0 338.0L370.0 236.0L391.0 236.0Z" fill-rule="nonzero"/><path fill="#2b569f" clip-path="url(#id_0)" d="M467.0 177.0L467.0 332.0L461.0 338.0L461.0 183.0Z" fill-rule="nonzero"/><path fill="#689df6" clip-path="url(#id_0)" d="M461.0 183.0L440.0 183.0L446.0 177.0L467.0 177.0Z" fill-rule="nonzero"/><path stroke="#000000" stroke-width="2.0" stroke-linecap="butt" stroke-opacity="0.0" clip-path="url(#id_0)" d="M461.0 338.0L440.0 338.0L440.0 183.0L461.0 183.0Z" fill-rule="nonzero"/><path fill="#4285f4" clip-path="url(#id_0)" d="M461.0 338.0L440.0 338.0L440.0 183.0L461.0 183.0Z" fill-rule="nonzero"/><path fill="#2b569f" clip-path="url(#id_0)" d="M536.0 130.0L536.0 332.0L530.0 338.0L530.0 136.0Z" fill-rule="nonzero"/><path fill="#689df6" clip-path="url(#id_0)" d="M530.0 136.0L509.0 136.0L515.0 130.0L536.0 130.0Z" fill-rule="nonzero"/><path stroke="#000000" stroke-width="2.0" stroke-linecap="butt" stroke-opacity="0.0" clip-path="url(#id_0)" d="M530.0 338.0L509.0 338.0L509.0 136.0L530.0 136.0Z" fill-rule="nonzero"/><path fill="#4285f4" clip-path="url(#id_0)" d="M530.0 338.0L509.0 338.0L509.0 136.0L530.0 136.0Z" fill-rule="nonzero"/><path fill="#982c22" clip-path="url(#id_0)" d="M141.0 250.0L141.0 332.0L135.0 338.0L135.0 256.0Z" fill-rule="nonzero"/><path fill="#ee695d" clip-path="url(#id_0)" d="M135.0 256.0L114.0 256.0L120.0 250.0L141.0 250.0Z" fill-rule="nonzero"/><path stroke="#000000" stroke-width="2.0" stroke-linecap="butt" stroke-opacity="0.0" clip-path="url(#id_0)" d="M135.0 338.0L114.0 338.0L114.0 256.0L135.0 256.0Z" fill-rule="nonzero"/><path fill="#ea4335" clip-path="url(#id_0)" d="M135.0 338.0L114.0 338.0L114.0 256.0L135.0 256.0Z" fill-rule="nonzero"/><path fill="#982c22" clip-path="url(#id_0)" d="M210.0 250.0L210.0 332.0L204.0 338.0L204.0 256.0Z" fill-rule="nonzero"/><path fill="#ee695d" clip-path="url(#id_0)" d="M204.0 256.0L183.0 256.0L189.0 250.0L210.0 250.0Z" fill-rule="nonzero"/><path stroke="#000000" stroke-width="2.0" stroke-linecap="butt" stroke-opacity="0.0" clip-path="url(#id_0)" d="M204.0 338.0L183.0 338.0L183.0 256.0L204.0 256.0Z" fill-rule="nonzero"/><path fill="#ea4335" clip-path="url(#id_0)" d="M204.0 338.0L183.0 338.0L183.0 256.0L204.0 256.0Z" fill-rule="nonzero"/><path fill="#982c22" clip-path="url(#id_0)" d="M280.0 245.0L280.0 332.0L274.0 338.0L274.0 251.0Z" fill-rule="nonzero"/><path fill="#ee695d" clip-path="url(#id_0)" d="M274.0 251.0L253.0 251.0L259.0 245.0L280.0 245.0Z" fill-rule="nonzero"/><path stroke="#000000" stroke-width="2.0" stroke-linecap="butt" stroke-opacity="0.0" clip-path="url(#id_0)" d="M274.0 338.0L253.0 338.0L253.0 251.0L274.0 251.0Z" fill-rule="nonzero"/><path fill="#ea4335" clip-path="url(#id_0)" d="M274.0 338.0L253.0 338.0L253.0 251.0L274.0 251.0Z" fill-rule="nonzero"/><path fill="#982c22" clip-path="url(#id_0)" d="M350.0 222.0L350.0 332.0L344.0 338.0L344.0 228.0Z" fill-rule="nonzero"/><path fill="#ee695d" clip-path="url(#id_0)" d="M344.0 228.0L323.0 228.0L329.0 222.0L350.0 222.0Z" fill-rule="nonzero"/><path stroke="#000000" stroke-width="2.0" stroke-linecap="butt" stroke-opacity="0.0" clip-path="url(#id_0)" d="M344.0 338.0L323.0 338.0L323.0 228.0L344.0 228.0Z" fill-rule="nonzero"/><path fill="#ea4335" clip-path="url(#id_0)" d="M344.0 338.0L323.0 338.0L323.0 228.0L344.0 228.0Z" fill-rule="nonzero"/><path fill="#982c22" clip-path="url(#id_0)" d="M420.0 180.0L420.0 332.0L414.0 338.0L414.0 186.0Z" fill-rule="nonzero"/><path fill="#ee695d" clip-path="url(#id_0)" d="M414.0 186.0L393.0 186.0L399.0 180.0L420.0 180.0Z" fill-rule="nonzero"/><path stroke="#000000" stroke-width="2.0" stroke-linecap="butt" stroke-opacity="0.0" clip-path="url(#id_0)" d="M414.0 338.0L393.0 338.0L393.0 186.0L414.0 186.0Z" fill-rule="nonzero"/><path fill="#ea4335" clip-path="url(#id_0)" d="M414.0 338.0L393.0 338.0L393.0 186.0L414.0 186.0Z" fill-rule="nonzero"/><path fill="#982c22" clip-path="url(#id_0)" d="M490.0 134.0L490.0 332.0L484.0 338.0L484.0 140.0Z" fill-rule="nonzero"/><path fill="#ee695d" clip-path="url(#id_0)" d="M484.0 140.0L463.0 140.0L469.0 134.0L490.0 134.0Z" fill-rule="nonzero"/><path stroke="#000000" stroke-width="2.0" stroke-linecap="butt" stroke-opacity="0.0" clip-path="url(#id_0)" d="M484.0 338.0L463.0 338.0L463.0 140.0L484.0 140.0Z" fill-rule="nonzero"/><path fill="#ea4335" clip-path="url(#id_0)" d="M484.0 338.0L463.0 338.0L463.0 140.0L484.0 140.0Z" fill-rule="nonzero"/><path fill="#982c22" clip-path="url(#id_0)" d="M559.0 88.0L559.0 332.0L553.0 338.0L553.0 94.0Z" fill-rule="nonzero"/><path fill="#ee695d" clip-path="url(#id_0)" d="M553.0 94.0L532.0 94.0L538.0 88.0L559.0 88.0Z" fill-rule="nonzero"/><path stroke="#000000" stroke-width="2.0" stroke-linecap="butt" stroke-opacity="0.0" clip-path="url(#id_0)" d="M553.0 338.0L532.0 338.0L532.0 94.0L553.0 94.0Z" fill-rule="nonzero"/><path fill="#ea4335" clip-path="url(#id_0)" d="M553.0 338.0L532.0 338.0L532.0 94.0L553.0 94.0Z" fill-rule="nonzero"/><path stroke="#000000" stroke-width="1.0" stroke-linecap="butt" d="M62.5 321.5L74.5 321.5" fill-rule="nonzero"/><path stroke="#000000" stroke-width="1.0" stroke-linecap="butt" d="M62.5 275.5L74.5 275.5" fill-rule="nonzero"/><path stroke="#000000" stroke-width="1.0" stroke-linecap="butt" d="M62.5 229.5L74.5 229.5" fill-rule="nonzero"/><path stroke="#000000" stroke-width="1.0" stroke-linecap="butt" d="M62.5 183.5L74.5 183.5" fill-rule="nonzero"/><path stroke="#000000" stroke-width="1.0" stroke-linecap="butt" d="M62.5 137.5L74.5 137.5" fill-rule="nonzero"/><path stroke="#000000" stroke-width="1.0" stroke-linecap="butt" d="M62.5 91.5L74.5 91.5" fill-rule="nonzero"/><path fill="#000000" d="M23.01875 325.53592L21.971874 325.53592L21.971874 318.81717Q21.58125 319.17654 20.95625 319.55154Q20.346874 319.91092 19.8625 320.0828L19.8625 319.06717Q20.7375 318.6453 21.39375 318.06717Q22.065624 317.47342 22.346874 316.91092L23.01875 316.91092L23.01875 325.53592ZM26.05 321.30154Q26.05 319.7703 26.3625 318.84842Q26.675 317.91092 27.284374 317.41092Q27.909374 316.91092 28.846874 316.91092Q29.534374 316.91092 30.05 317.19217Q30.58125 317.47342 30.925 318.00467Q31.26875 318.5203 31.45625 319.2703Q31.64375 320.0203 31.64375 321.30154Q31.64375 322.81717 31.33125 323.73904Q31.034374 324.66092 30.409374 325.17654Q29.8 325.67654 28.846874 325.67654Q27.6125 325.67654 26.89375 324.78592Q26.05 323.72342 26.05 321.30154ZM27.128124 321.30154Q27.128124 323.41092 27.628124 324.11404Q28.128124 324.81717 28.846874 324.81717Q29.58125 324.81717 30.065624 324.11404Q30.565624 323.41092 30.565624 321.30154Q30.565624 319.17654 30.065624 318.48904Q29.58125 317.78592 28.83125 317.78592Q28.1125 317.78592 27.675 318.3953Q27.128124 319.17654 27.128124 321.30154ZM33.05 321.30154Q33.05 319.7703 33.3625 318.84842Q33.675 317.91092 34.284374 317.41092Q34.909374 316.91092 35.846874 316.91092Q36.534374 316.91092 37.05 317.19217Q37.58125 317.47342 37.925 318.00467Q38.26875 318.5203 38.45625 319.2703Q38.64375 320.0203 38.64375 321.30154Q38.64375 322.81717 38.33125 323.73904Q38.034374 324.66092 37.409374 325.17654Q36.8 325.67654 35.846874 325.67654Q34.6125 325.67654 33.89375 324.78592Q33.05 323.72342 33.05 321.30154ZM34.128124 321.30154Q34.128124 323.41092 34.628124 324.11404Q35.128124 324.81717 35.846874 324.81717Q36.58125 324.81717 37.065624 324.11404Q37.565624 323.41092 37.565624 321.30154Q37.565624 319.17654 37.065624 318.48904Q36.58125 317.78592 35.83125 317.78592Q35.1125 317.78592 34.675 318.3953Q34.128124 319.17654 34.128124 321.30154ZM43.346874 325.53592L43.346874 319.31717L44.284374 319.31717L44.284374 320.19217Q44.971874 319.17654 46.26875 319.17654Q46.83125 319.17654 47.3 319.37967Q47.784374 319.5828 48.01875 319.91092Q48.253124 320.23904 48.346874 320.67654Q48.39375 320.97342 48.39375 321.7078L48.39375 325.53592L47.346874 325.53592L47.346874 321.75467Q47.346874 321.09842 47.221874 320.78592Q47.096874 320.47342 46.784374 320.28592Q46.471874 320.0828 46.05 320.0828Q45.378124 320.0828 44.878124 320.5203Q44.39375 320.94217 44.39375 322.12967L44.39375 325.53592L43.346874 325.53592ZM49.925 323.67654L50.95625 323.5203Q51.05 324.1453 51.440624 324.47342Q51.846874 324.80154 52.58125 324.80154Q53.3 324.80154 53.64375 324.5203Q54.003124 324.22342 54.003124 323.81717Q54.003124 323.4578 53.690624 323.25467Q53.471874 323.11404 52.6125 322.8953Q51.45625 322.59842 51.003124 322.3953Q50.565624 322.17654 50.33125 321.80154Q50.096874 321.42654 50.096874 320.9578Q50.096874 320.55154 50.284374 320.19217Q50.471874 319.8328 50.8 319.59842Q51.05 319.42654 51.471874 319.30154Q51.89375 319.17654 52.39375 319.17654Q53.1125 319.17654 53.659374 319.3953Q54.221874 319.59842 54.4875 319.9578Q54.753124 320.31717 54.846874 320.91092L53.815624 321.05154Q53.753124 320.5828 53.409374 320.31717Q53.08125 320.03592 52.45625 320.03592Q51.7375 320.03592 51.425 320.28592Q51.1125 320.5203 51.1125 320.84842Q51.1125 321.05154 51.2375 321.2078Q51.378124 321.37967 51.64375 321.48904Q51.8 321.55154 52.58125 321.75467Q53.70625 322.06717 54.14375 322.25467Q54.58125 322.44217 54.83125 322.80154Q55.08125 323.16092 55.08125 323.7078Q55.08125 324.23904 54.76875 324.7078Q54.471874 325.16092 53.89375 325.42654Q53.315624 325.67654 52.58125 325.67654Q51.3625 325.67654 50.721874 325.17654Q50.096874 324.66092 49.925 323.67654Z" fill-rule="nonzero"/><path fill="#000000" d="M37.01875 279.44864L35.971874 279.44864L35.971874 272.7299Q35.58125 273.08926 34.95625 273.46426Q34.346874 273.82364 33.8625 273.9955L33.8625 272.9799Q34.7375 272.558 35.39375 271.9799Q36.065624 271.38614 36.346874 270.82364L37.01875 270.82364L37.01875 279.44864ZM48.51875 273.2299L48.51875 279.44864L47.565624 279.44864L47.565624 278.71426Q47.26875 279.183 46.971874 279.3549Q46.565624 279.58926 46.01875 279.58926Q45.534374 279.58926 45.159374 279.40176Q44.878124 279.26114 44.534374 278.82364L44.534374 281.83926L43.4875 281.83926L43.4875 273.2299L44.534374 273.2299L44.534374 275.8549Q44.534374 277.2924 44.675 277.7299Q44.83125 278.15176 45.175 278.40176Q45.51875 278.63614 45.971874 278.63614Q46.440624 278.63614 46.8 278.38614Q47.175 278.1205 47.315624 277.71426Q47.471874 277.308 47.471874 275.88614L47.471874 273.2299L48.51875 273.2299ZM49.925 277.58926L50.95625 277.433Q51.05 278.058 51.440624 278.38614Q51.846874 278.71426 52.58125 278.71426Q53.3 278.71426 53.64375 278.433Q54.003124 278.13614 54.003124 277.7299Q54.003124 277.3705 53.690624 277.1674Q53.471874 277.02676 52.6125 276.808Q51.45625 276.51114 51.003124 276.308Q50.565624 276.08926 50.33125 275.71426Q50.096874 275.33926 50.096874 274.8705Q50.096874 274.46426 50.284374 274.1049Q50.471874 273.7455 50.8 273.51114Q51.05 273.33926 51.471874 273.21426Q51.89375 273.08926 52.39375 273.08926Q53.1125 273.08926 53.659374 273.308Q54.221874 273.51114 54.4875 273.8705Q54.753124 274.2299 54.846874 274.82364L53.815624 274.96426Q53.753124 274.4955 53.409374 274.2299Q53.08125 273.94864 52.45625 273.94864Q51.7375 273.94864 51.425 274.19864Q51.1125 274.433 51.1125 274.76114Q51.1125 274.96426 51.2375 275.1205Q51.378124 275.2924 51.64375 275.40176Q51.8 275.46426 52.58125 275.6674Q53.70625 275.9799 54.14375 276.1674Q54.58125 276.3549 54.83125 276.71426Q55.08125 277.07364 55.08125 277.6205Q55.08125 278.15176 54.76875 278.6205Q54.471874 279.07364 53.89375 279.33926Q53.315624 279.58926 52.58125 279.58926Q51.3625 279.58926 50.721874 279.08926Q50.096874 278.57364 49.925 277.58926Z" fill-rule="nonzero"/><path fill="#000000" d="M30.01875 233.36136L28.971874 233.36136L28.971874 226.64261Q28.58125 227.00198 27.95625 227.37698Q27.346874 227.73636 26.8625 227.90823L26.8625 226.89261Q27.7375 226.47073 28.39375 225.89261Q29.065624 225.29886 29.346874 224.73636L30.01875 224.73636L30.01875 233.36136ZM33.05 229.12698Q33.05 227.59573 33.3625 226.67386Q33.675 225.73636 34.284374 225.23636Q34.909374 224.73636 35.846874 224.73636Q36.534374 224.73636 37.05 225.01761Q37.58125 225.29886 37.925 225.83011Q38.26875 226.34573 38.45625 227.09573Q38.64375 227.84573 38.64375 229.12698Q38.64375 230.64261 38.33125 231.56448Q38.034374 232.48636 37.409374 233.00198Q36.8 233.50198 35.846874 233.50198Q34.6125 233.50198 33.89375 232.61136Q33.05 231.54886 33.05 229.12698ZM34.128124 229.12698Q34.128124 231.23636 34.628124 231.93948Q35.128124 232.64261 35.846874 232.64261Q36.58125 232.64261 37.065624 231.93948Q37.565624 231.23636 37.565624 229.12698Q37.565624 227.00198 37.065624 226.31448Q36.58125 225.61136 35.83125 225.61136Q35.1125 225.61136 34.675 226.22073Q34.128124 227.00198 34.128124 229.12698ZM48.51875 227.14261L48.51875 233.36136L47.565624 233.36136L47.565624 232.62698Q47.26875 233.09573 46.971874 233.26761Q46.565624 233.50198 46.01875 233.50198Q45.534374 233.50198 45.159374 233.31448Q44.878124 233.17386 44.534374 232.73636L44.534374 235.75198L43.4875 235.75198L43.4875 227.14261L44.534374 227.14261L44.534374 229.76761Q44.534374 231.20511 44.675 231.64261Q44.83125 232.06448 45.175 232.31448Q45.51875 232.54886 45.971874 232.54886Q46.440624 232.54886 46.8 232.29886Q47.175 232.03323 47.315624 231.62698Q47.471874 231.22073 47.471874 229.79886L47.471874 227.14261L48.51875 227.14261ZM49.925 231.50198L50.95625 231.34573Q51.05 231.97073 51.440624 232.29886Q51.846874 232.62698 52.58125 232.62698Q53.3 232.62698 53.64375 232.34573Q54.003124 232.04886 54.003124 231.64261Q54.003124 231.28323 53.690624 231.08011Q53.471874 230.93948 52.6125 230.72073Q51.45625 230.42386 51.003124 230.22073Q50.565624 230.00198 50.33125 229.62698Q50.096874 229.25198 50.096874 228.78323Q50.096874 228.37698 50.284374 228.01761Q50.471874 227.65823 50.8 227.42386Q51.05 227.25198 51.471874 227.12698Q51.89375 227.00198 52.39375 227.00198Q53.1125 227.00198 53.659374 227.22073Q54.221874 227.42386 54.4875 227.78323Q54.753124 228.14261 54.846874 228.73636L53.815624 228.87698Q53.753124 228.40823 53.409374 228.14261Q53.08125 227.86136 52.45625 227.86136Q51.7375 227.86136 51.425 228.11136Q51.1125 228.34573 51.1125 228.67386Q51.1125 228.87698 51.2375 229.03323Q51.378124 229.20511 51.64375 229.31448Q51.8 229.37698 52.58125 229.58011Q53.70625 229.89261 54.14375 230.08011Q54.58125 230.26761 54.83125 230.62698Q55.08125 230.98636 55.08125 231.53323Q55.08125 232.06448 54.76875 232.53323Q54.471874 232.98636 53.89375 233.25198Q53.315624 233.50198 52.58125 233.50198Q51.3625 233.50198 50.721874 233.00198Q50.096874 232.48636 49.925 231.50198Z" fill-rule="nonzero"/><path fill="#000000" d="M23.01875 187.27408L21.971874 187.27408L21.971874 180.55533Q21.58125 180.9147 20.95625 181.2897Q20.346874 181.64908 19.8625 181.82095L19.8625 180.80533Q20.7375 180.38345 21.39375 179.80533Q22.065624 179.21158 22.346874 178.64908L23.01875 178.64908L23.01875 187.27408ZM26.05 183.0397Q26.05 181.50845 26.3625 180.58658Q26.675 179.64908 27.284374 179.14908Q27.909374 178.64908 28.846874 178.64908Q29.534374 178.64908 30.05 178.93033Q30.58125 179.21158 30.925 179.74283Q31.26875 180.25845 31.45625 181.00845Q31.64375 181.75845 31.64375 183.0397Q31.64375 184.55533 31.33125 185.4772Q31.034374 186.39908 30.409374 186.9147Q29.8 187.4147 28.846874 187.4147Q27.6125 187.4147 26.89375 186.52408Q26.05 185.46158 26.05 183.0397ZM27.128124 183.0397Q27.128124 185.14908 27.628124 185.8522Q28.128124 186.55533 28.846874 186.55533Q29.58125 186.55533 30.065624 185.8522Q30.565624 185.14908 30.565624 183.0397Q30.565624 180.9147 30.065624 180.2272Q29.58125 179.52408 28.83125 179.52408Q28.1125 179.52408 27.675 180.13345Q27.128124 180.9147 27.128124 183.0397ZM33.05 183.0397Q33.05 181.50845 33.3625 180.58658Q33.675 179.64908 34.284374 179.14908Q34.909374 178.64908 35.846874 178.64908Q36.534374 178.64908 37.05 178.93033Q37.58125 179.21158 37.925 179.74283Q38.26875 180.25845 38.45625 181.00845Q38.64375 181.75845 38.64375 183.0397Q38.64375 184.55533 38.33125 185.4772Q38.034374 186.39908 37.409374 186.9147Q36.8 187.4147 35.846874 187.4147Q34.6125 187.4147 33.89375 186.52408Q33.05 185.46158 33.05 183.0397ZM34.128124 183.0397Q34.128124 185.14908 34.628124 185.8522Q35.128124 186.55533 35.846874 186.55533Q36.58125 186.55533 37.065624 185.8522Q37.565624 185.14908 37.565624 183.0397Q37.565624 180.9147 37.065624 180.2272Q36.58125 179.52408 35.83125 179.52408Q35.1125 179.52408 34.675 180.13345Q34.128124 180.9147 34.128124 183.0397ZM48.51875 181.05533L48.51875 187.27408L47.565624 187.27408L47.565624 186.5397Q47.26875 187.00845 46.971874 187.18033Q46.565624 187.4147 46.01875 187.4147Q45.534374 187.4147 45.159374 187.2272Q44.878124 187.08658 44.534374 186.64908L44.534374 189.6647L43.4875 189.6647L43.4875 181.05533L44.534374 181.05533L44.534374 183.68033Q44.534374 185.11783 44.675 185.55533Q44.83125 185.9772 45.175 186.2272Q45.51875 186.46158 45.971874 186.46158Q46.440624 186.46158 46.8 186.21158Q47.175 185.94595 47.315624 185.5397Q47.471874 185.13345 47.471874 183.71158L47.471874 181.05533L48.51875 181.05533ZM49.925 185.4147L50.95625 185.25845Q51.05 185.88345 51.440624 186.21158Q51.846874 186.5397 52.58125 186.5397Q53.3 186.5397 53.64375 186.25845Q54.003124 185.96158 54.003124 185.55533Q54.003124 185.19595 53.690624 184.99283Q53.471874 184.8522 52.6125 184.63345Q51.45625 184.33658 51.003124 184.13345Q50.565624 183.9147 50.33125 183.5397Q50.096874 183.1647 50.096874 182.69595Q50.096874 182.2897 50.284374 181.93033Q50.471874 181.57095 50.8 181.33658Q51.05 181.1647 51.471874 181.0397Q51.89375 180.9147 52.39375 180.9147Q53.1125 180.9147 53.659374 181.13345Q54.221874 181.33658 54.4875 181.69595Q54.753124 182.05533 54.846874 182.64908L53.815624 182.7897Q53.753124 182.32095 53.409374 182.05533Q53.08125 181.77408 52.45625 181.77408Q51.7375 181.77408 51.425 182.02408Q51.1125 182.25845 51.1125 182.58658Q51.1125 182.7897 51.2375 182.94595Q51.378124 183.11783 51.64375 183.2272Q51.8 183.2897 52.58125 183.49283Q53.70625 183.80533 54.14375 183.99283Q54.58125 184.18033 54.83125 184.5397Q55.08125 184.89908 55.08125 185.44595Q55.08125 185.9772 54.76875 186.44595Q54.471874 186.89908 53.89375 187.1647Q53.315624 187.4147 52.58125 187.4147Q51.3625 187.4147 50.721874 186.9147Q50.096874 186.39908 49.925 185.4147Z" fill-rule="nonzero"/><path fill="#000000" d="M33.01875 141.1868L31.971874 141.1868L31.971874 134.46805Q31.58125 134.82742 30.95625 135.20242Q30.346874 135.5618 29.8625 135.73367L29.8625 134.71805Q30.7375 134.29617 31.39375 133.71805Q32.065624 133.1243 32.346874 132.5618L33.01875 132.5618L33.01875 141.1868ZM39.346874 141.1868L39.346874 134.96805L40.284374 134.96805L40.284374 135.84305Q40.58125 135.3743 41.065624 135.10867Q41.55 134.82742 42.175 134.82742Q42.8625 134.82742 43.3 135.10867Q43.753124 135.38992 43.925 135.90555Q44.675 134.82742 45.846874 134.82742Q46.784374 134.82742 47.26875 135.34305Q47.76875 135.84305 47.76875 136.92117L47.76875 141.1868L46.721874 141.1868L46.721874 137.26492Q46.721874 136.63992 46.6125 136.35867Q46.51875 136.07742 46.253124 135.90555Q45.9875 135.73367 45.6125 135.73367Q44.95625 135.73367 44.51875 136.17117Q44.096874 136.60867 44.096874 137.57742L44.096874 141.1868L43.034374 141.1868L43.034374 137.13992Q43.034374 136.4368 42.76875 136.09305Q42.51875 135.73367 41.940624 135.73367Q41.4875 135.73367 41.1125 135.96805Q40.7375 136.20242 40.565624 136.65555Q40.39375 137.10867 40.39375 137.95242L40.39375 141.1868L39.346874 141.1868ZM49.925 139.32742L50.95625 139.17117Q51.05 139.79617 51.440624 140.1243Q51.846874 140.45242 52.58125 140.45242Q53.3 140.45242 53.64375 140.17117Q54.003124 139.8743 54.003124 139.46805Q54.003124 139.10867 53.690624 138.90555Q53.471874 138.76492 52.6125 138.54617Q51.45625 138.2493 51.003124 138.04617Q50.565624 137.82742 50.33125 137.45242Q50.096874 137.07742 50.096874 136.60867Q50.096874 136.20242 50.284374 135.84305Q50.471874 135.48367 50.8 135.2493Q51.05 135.07742 51.471874 134.95242Q51.89375 134.82742 52.39375 134.82742Q53.1125 134.82742 53.659374 135.04617Q54.221874 135.2493 54.4875 135.60867Q54.753124 135.96805 54.846874 136.5618L53.815624 136.70242Q53.753124 136.23367 53.409374 135.96805Q53.08125 135.6868 52.45625 135.6868Q51.7375 135.6868 51.425 135.9368Q51.1125 136.17117 51.1125 136.4993Q51.1125 136.70242 51.2375 136.85867Q51.378124 137.03055 51.64375 137.13992Q51.8 137.20242 52.58125 137.40555Q53.70625 137.71805 54.14375 137.90555Q54.58125 138.09305 54.83125 138.45242Q55.08125 138.8118 55.08125 139.35867Q55.08125 139.88992 54.76875 140.35867Q54.471874 140.8118 53.89375 141.07742Q53.315624 141.32742 52.58125 141.32742Q51.3625 141.32742 50.721874 140.82742Q50.096874 140.3118 49.925 139.32742Z" fill-rule="nonzero"/><path fill="#000000" d="M26.01875 95.09952L24.971874 95.09952L24.971874 88.38077Q24.58125 88.74014 23.95625 89.11514Q23.346874 89.47452 22.8625 89.64639L22.8625 88.63077Q23.7375 88.20889 24.39375 87.63077Q25.065624 87.03702 25.346874 86.47452L26.01875 86.47452L26.01875 95.09952ZM29.05 90.86514Q29.05 89.33389 29.3625 88.41202Q29.675 87.47452 30.284374 86.97452Q30.909374 86.47452 31.846874 86.47452Q32.534374 86.47452 33.05 86.75577Q33.58125 87.03702 33.925 87.56827Q34.26875 88.08389 34.45625 88.83389Q34.64375 89.58389 34.64375 90.86514Q34.64375 92.38077 34.33125 93.30264Q34.034374 94.22452 33.409374 94.74014Q32.8 95.24014 31.846874 95.24014Q30.6125 95.24014 29.89375 94.34952Q29.05 93.28702 29.05 90.86514ZM30.128124 90.86514Q30.128124 92.97452 30.628124 93.67764Q31.128124 94.38077 31.846874 94.38077Q32.58125 94.38077 33.065624 93.67764Q33.565624 92.97452 33.565624 90.86514Q33.565624 88.74014 33.065624 88.05264Q32.58125 87.34952 31.83125 87.34952Q31.1125 87.34952 30.675 87.95889Q30.128124 88.74014 30.128124 90.86514ZM39.346874 95.09952L39.346874 88.88077L40.284374 88.88077L40.284374 89.75577Q40.58125 89.28702 41.065624 89.02139Q41.55 88.74014 42.175 88.74014Q42.8625 88.74014 43.3 89.02139Q43.753124 89.30264 43.925 89.81827Q44.675 88.74014 45.846874 88.74014Q46.784374 88.74014 47.26875 89.25577Q47.76875 89.75577 47.76875 90.83389L47.76875 95.09952L46.721874 95.09952L46.721874 91.17764Q46.721874 90.55264 46.6125 90.27139Q46.51875 89.99014 46.253124 89.81827Q45.9875 89.64639 45.6125 89.64639Q44.95625 89.64639 44.51875 90.08389Q44.096874 90.52139 44.096874 91.49014L44.096874 95.09952L43.034374 95.09952L43.034374 91.05264Q43.034374 90.34952 42.76875 90.00577Q42.51875 89.64639 41.940624 89.64639Q41.4875 89.64639 41.1125 89.88077Q40.7375 90.11514 40.565624 90.56827Q40.39375 91.02139 40.39375 91.86514L40.39375 95.09952L39.346874 95.09952ZM49.925 93.24014L50.95625 93.08389Q51.05 93.70889 51.440624 94.03702Q51.846874 94.36514 52.58125 94.36514Q53.3 94.36514 53.64375 94.08389Q54.003124 93.78702 54.003124 93.38077Q54.003124 93.02139 53.690624 92.81827Q53.471874 92.67764 52.6125 92.45889Q51.45625 92.16202 51.003124 91.95889Q50.565624 91.74014 50.33125 91.36514Q50.096874 90.99014 50.096874 90.52139Q50.096874 90.11514 50.284374 89.75577Q50.471874 89.39639 50.8 89.16202Q51.05 88.99014 51.471874 88.86514Q51.89375 88.74014 52.39375 88.74014Q53.1125 88.74014 53.659374 88.95889Q54.221874 89.16202 54.4875 89.52139Q54.753124 89.88077 54.846874 90.47452L53.815624 90.61514Q53.753124 90.14639 53.409374 89.88077Q53.08125 89.59952 52.45625 89.59952Q51.7375 89.59952 51.425 89.84952Q51.1125 90.08389 51.1125 90.41202Q51.1125 90.61514 51.2375 90.77139Q51.378124 90.94327 51.64375 91.05264Q51.8 91.11514 52.58125 91.31827Q53.70625 91.63077 54.14375 91.81827Q54.58125 92.00577 54.83125 92.36514Q55.08125 92.72452 55.08125 93.27139Q55.08125 93.80264 54.76875 94.27139Q54.471874 94.72452 53.89375 94.99014Q53.315624 95.24014 52.58125 95.24014Q51.3625 95.24014 50.721874 94.74014Q50.096874 94.22452 49.925 93.24014Z" fill-rule="nonzero"/><path fill="#000000" d="M100.65306 345.21564Q100.65306 343.6844 100.96556 342.7625Q101.27806 341.825 101.887436 341.325Q102.512436 340.825 103.449936 340.825Q104.137436 340.825 104.65306 341.10626Q105.18431 341.3875 105.52806 341.91876Q105.87181 342.4344 106.05931 343.1844Q106.24681 343.9344 106.24681 345.21564Q106.24681 346.73126 105.93431 347.65314Q105.637436 348.575 105.012436 349.09064Q104.40306 349.59064 103.449936 349.59064Q102.21556 349.59064 101.49681 348.7Q100.65306 347.6375 100.65306 345.21564ZM101.731186 345.21564Q101.731186 347.325 102.231186 348.02814Q102.731186 348.73126 103.449936 348.73126Q104.18431 348.73126 104.668686 348.02814Q105.168686 347.325 105.168686 345.21564Q105.168686 343.09064 104.668686 342.40314Q104.18431 341.7 103.43431 341.7Q102.71556 341.7 102.27806 342.3094Q101.731186 343.09064 101.731186 345.21564ZM107.52806 346.8719L107.52806 345.8094L110.77806 345.8094L110.77806 346.8719L107.52806 346.8719ZM115.62181 349.45L114.574936 349.45L114.574936 342.73126Q114.18431 343.09064 113.55931 343.46564Q112.949936 343.825 112.46556 343.9969L112.46556 342.98126Q113.34056 342.5594 113.99681 341.98126Q114.668686 341.3875 114.949936 340.825L115.62181 340.825L115.62181 349.45ZM124.199936 348.4344L124.199936 349.45L118.512436 349.45Q118.512436 349.075 118.637436 348.71564Q118.856186 348.1375 119.324936 347.575Q119.80931 347.0125 120.71556 346.27814Q122.12181 345.1219 122.606186 344.45Q123.106186 343.77814 123.106186 343.1844Q123.106186 342.5594 122.65306 342.1375Q122.199936 341.7 121.481186 341.7Q120.71556 341.7 120.262436 342.15314Q119.80931 342.60626 119.793686 343.41876L118.71556 343.3094Q118.824936 342.09064 119.543686 341.46564Q120.27806 340.825 121.512436 340.825Q122.74681 340.825 123.46556 341.5125Q124.18431 342.2 124.18431 343.21564Q124.18431 343.73126 123.96556 344.23126Q123.762436 344.71564 123.262436 345.27814Q122.77806 345.825 121.65306 346.77814Q120.699936 347.575 120.418686 347.8719Q120.15306 348.15314 119.981186 348.4344L124.199936 348.4344Z" fill-rule="nonzero"/><path fill="#000000" d="M174.40413 349.45L173.35725 349.45L173.35725 342.73126Q172.96663 343.09064 172.34163 343.46564Q171.73225 343.825 171.24788 343.9969L171.24788 342.98126Q172.12288 342.5594 172.77913 341.98126Q173.451 341.3875 173.73225 340.825L174.40413 340.825L174.40413 349.45ZM177.31038 346.8719L177.31038 345.8094L180.56038 345.8094L180.56038 346.8719L177.31038 346.8719ZM185.40413 349.45L184.35725 349.45L184.35725 342.73126Q183.96663 343.09064 183.34163 343.46564Q182.73225 343.825 182.24788 343.9969L182.24788 342.98126Q183.12288 342.5594 183.77913 341.98126Q184.451 341.3875 184.73225 340.825L185.40413 340.825L185.40413 349.45ZM193.98225 348.4344L193.98225 349.45L188.29475 349.45Q188.29475 349.075 188.41975 348.71564Q188.6385 348.1375 189.10725 347.575Q189.59163 347.0125 190.49788 346.27814Q191.90413 345.1219 192.3885 344.45Q192.8885 343.77814 192.8885 343.1844Q192.8885 342.5594 192.43538 342.1375Q191.98225 341.7 191.2635 341.7Q190.49788 341.7 190.04475 342.15314Q189.59163 342.60626 189.576 343.41876L188.49788 343.3094Q188.60725 342.09064 189.326 341.46564Q190.06038 340.825 191.29475 340.825Q192.52913 340.825 193.24788 341.5125Q193.96663 342.2 193.96663 343.21564Q193.96663 343.73126 193.74788 344.23126Q193.54475 344.71564 193.04475 345.27814Q192.56038 345.825 191.43538 346.77814Q190.48225 347.575 190.201 347.8719Q189.93538 348.15314 189.7635 348.4344L193.98225 348.4344Z" fill-rule="nonzero"/><path fill="#000000" d="M241.84268 344.79376Q241.18643 344.54376 240.8583 344.10626Q240.5458 343.65314 240.5458 343.04376Q240.5458 342.10626 241.21768 341.46564Q241.90518 340.825 243.01456 340.825Q244.13956 340.825 244.82706 341.48126Q245.51456 342.1375 245.51456 343.075Q245.51456 343.66876 245.20206 344.10626Q244.88956 344.54376 244.24893 344.79376Q245.0458 345.04376 245.45206 345.6219Q245.8583 346.2 245.8583 346.9969Q245.8583 348.09064 245.07706 348.84064Q244.31143 349.59064 243.03018 349.59064Q241.76456 349.59064 240.9833 348.84064Q240.20206 348.09064 240.20206 346.96564Q240.20206 346.1219 240.62393 345.5594Q241.06143 344.9969 241.84268 344.79376ZM241.62393 342.9969Q241.62393 343.60626 242.01456 343.9969Q242.4208 344.3875 243.0458 344.3875Q243.65518 344.3875 244.0458 344.0125Q244.43643 343.6219 244.43643 343.0594Q244.43643 342.48126 244.03018 342.09064Q243.62393 341.6844 243.03018 341.6844Q242.4208 341.6844 242.01456 342.075Q241.62393 342.46564 241.62393 342.9969ZM241.2958 346.96564Q241.2958 347.41876 241.49893 347.84064Q241.71768 348.2625 242.13956 348.4969Q242.56143 348.73126 243.0458 348.73126Q243.7958 348.73126 244.28018 348.2469Q244.78018 347.7625 244.78018 347.0125Q244.78018 346.2469 244.28018 345.7469Q243.78018 345.2469 243.01456 345.2469Q242.26456 345.2469 241.78018 345.7469Q241.2958 346.23126 241.2958 346.96564ZM247.09268 346.8719L247.09268 345.8094L250.34268 345.8094L250.34268 346.8719L247.09268 346.8719ZM255.18643 349.45L254.13956 349.45L254.13956 342.73126Q253.74893 343.09064 253.12393 343.46564Q252.51456 343.825 252.03018 343.9969L252.03018 342.98126Q252.90518 342.5594 253.56143 341.98126Q254.2333 341.3875 254.51456 340.825L255.18643 340.825L255.18643 349.45ZM263.76456 348.4344L263.76456 349.45L258.07706 349.45Q258.07706 349.075 258.20206 348.71564Q258.4208 348.1375 258.88956 347.575Q259.37393 347.0125 260.28018 346.27814Q261.68643 345.1219 262.1708 344.45Q262.6708 343.77814 262.6708 343.1844Q262.6708 342.5594 262.21768 342.1375Q261.76456 341.7 261.0458 341.7Q260.28018 341.7 259.82706 342.15314Q259.37393 342.60626 259.3583 343.41876L258.28018 343.3094Q258.38956 342.09064 259.1083 341.46564Q259.84268 340.825 261.07706 340.825Q262.31143 340.825 263.03018 341.5125Q263.74893 342.2 263.74893 343.21564Q263.74893 343.73126 263.53018 344.23126Q263.32706 344.71564 262.82706 345.27814Q262.34268 345.825 261.21768 346.77814Q260.26456 347.575 259.9833 347.8719Q259.71768 348.15314 259.5458 348.4344L263.76456 348.4344Z" fill-rule="nonzero"/><path fill="#000000" d="M306.96875 349.45L305.92188 349.45L305.92188 342.73126Q305.53125 343.09064 304.90625 343.46564Q304.29688 343.825 303.8125 343.9969L303.8125 342.98126Q304.6875 342.5594 305.34375 341.98126Q306.01562 341.3875 306.29688 340.825L306.96875 340.825L306.96875 349.45ZM310.0 345.21564Q310.0 343.6844 310.3125 342.7625Q310.625 341.825 311.23438 341.325Q311.85938 340.825 312.79688 340.825Q313.48438 340.825 314.0 341.10626Q314.53125 341.3875 314.875 341.91876Q315.21875 342.4344 315.40625 343.1844Q315.59375 343.9344 315.59375 345.21564Q315.59375 346.73126 315.28125 347.65314Q314.98438 348.575 314.35938 349.09064Q313.75 349.59064 312.79688 349.59064Q311.5625 349.59064 310.84375 348.7Q310.0 347.6375 310.0 345.21564ZM311.07812 345.21564Q311.07812 347.325 311.57812 348.02814Q312.07812 348.73126 312.79688 348.73126Q313.53125 348.73126 314.01562 348.02814Q314.51562 347.325 314.51562 345.21564Q314.51562 343.09064 314.01562 342.40314Q313.53125 341.7 312.78125 341.7Q312.0625 341.7 311.625 342.3094Q311.07812 343.09064 311.07812 345.21564ZM317.0 345.21564Q317.0 343.6844 317.3125 342.7625Q317.625 341.825 318.23438 341.325Q318.85938 340.825 319.79688 340.825Q320.48438 340.825 321.0 341.10626Q321.53125 341.3875 321.875 341.91876Q322.21875 342.4344 322.40625 343.1844Q322.59375 343.9344 322.59375 345.21564Q322.59375 346.73126 322.28125 347.65314Q321.98438 348.575 321.35938 349.09064Q320.75 349.59064 319.79688 349.59064Q318.5625 349.59064 317.84375 348.7Q317.0 347.6375 317.0 345.21564ZM318.07812 345.21564Q318.07812 347.325 318.57812 348.02814Q319.07812 348.73126 319.79688 348.73126Q320.53125 348.73126 321.01562 348.02814Q321.51562 347.325 321.51562 345.21564Q321.51562 343.09064 321.01562 342.40314Q320.53125 341.7 319.78125 341.7Q319.0625 341.7 318.625 342.3094Q318.07812 343.09064 318.07812 345.21564ZM323.875 346.8719L323.875 345.8094L327.125 345.8094L327.125 346.8719L323.875 346.8719ZM331.96875 349.45L330.92188 349.45L330.92188 342.73126Q330.53125 343.09064 329.90625 343.46564Q329.29688 343.825 328.8125 343.9969L328.8125 342.98126Q329.6875 342.5594 330.34375 341.98126Q331.01562 341.3875 331.29688 340.825L331.96875 340.825L331.96875 349.45ZM340.54688 348.4344L340.54688 349.45L334.85938 349.45Q334.85938 349.075 334.98438 348.71564Q335.20312 348.1375 335.67188 347.575Q336.15625 347.0125 337.0625 346.27814Q338.46875 345.1219 338.95312 344.45Q339.45312 343.77814 339.45312 343.1844Q339.45312 342.5594 339.0 342.1375Q338.54688 341.7 337.82812 341.7Q337.0625 341.7 336.60938 342.15314Q336.15625 342.60626 336.14062 343.41876L335.0625 343.3094Q335.17188 342.09064 335.89062 341.46564Q336.625 340.825 337.85938 340.825Q339.09375 340.825 339.8125 341.5125Q340.53125 342.2 340.53125 343.21564Q340.53125 343.73126 340.3125 344.23126Q340.10938 344.71564 339.60938 345.27814Q339.125 345.825 338.0 346.77814Q337.04688 347.575 336.76562 347.8719Q336.5 348.15314 336.32812 348.4344L340.54688 348.4344Z" fill-rule="nonzero"/><path fill="#000000" d="M373.25107 349.45L372.2042 349.45L372.2042 342.73126Q371.81357 343.09064 371.18857 343.46564Q370.5792 343.825 370.09482 343.9969L370.09482 342.98126Q370.96982 342.5594 371.62607 341.98126Q372.29794 341.3875 372.5792 340.825L373.25107 340.825L373.25107 349.45ZM376.28232 345.21564Q376.28232 343.6844 376.59482 342.7625Q376.90732 341.825 377.5167 341.325Q378.1417 340.825 379.0792 340.825Q379.7667 340.825 380.28232 341.10626Q380.81357 341.3875 381.15732 341.91876Q381.50107 342.4344 381.68857 343.1844Q381.87607 343.9344 381.87607 345.21564Q381.87607 346.73126 381.56357 347.65314Q381.2667 348.575 380.6417 349.09064Q380.03232 349.59064 379.0792 349.59064Q377.84482 349.59064 377.12607 348.7Q376.28232 347.6375 376.28232 345.21564ZM377.36044 345.21564Q377.36044 347.325 377.86044 348.02814Q378.36044 348.73126 379.0792 348.73126Q379.81357 348.73126 380.29794 348.02814Q380.79794 347.325 380.79794 345.21564Q380.79794 343.09064 380.29794 342.40314Q379.81357 341.7 379.06357 341.7Q378.34482 341.7 377.90732 342.3094Q377.36044 343.09064 377.36044 345.21564ZM383.28232 345.21564Q383.28232 343.6844 383.59482 342.7625Q383.90732 341.825 384.5167 341.325Q385.1417 340.825 386.0792 340.825Q386.7667 340.825 387.28232 341.10626Q387.81357 341.3875 388.15732 341.91876Q388.50107 342.4344 388.68857 343.1844Q388.87607 343.9344 388.87607 345.21564Q388.87607 346.73126 388.56357 347.65314Q388.2667 348.575 387.6417 349.09064Q387.03232 349.59064 386.0792 349.59064Q384.84482 349.59064 384.12607 348.7Q383.28232 347.6375 383.28232 345.21564ZM384.36044 345.21564Q384.36044 347.325 384.86044 348.02814Q385.36044 348.73126 386.0792 348.73126Q386.81357 348.73126 387.29794 348.02814Q387.79794 347.325 387.79794 345.21564Q387.79794 343.09064 387.29794 342.40314Q386.81357 341.7 386.06357 341.7Q385.34482 341.7 384.90732 342.3094Q384.36044 343.09064 384.36044 345.21564ZM390.28232 345.21564Q390.28232 343.6844 390.59482 342.7625Q390.90732 341.825 391.5167 341.325Q392.1417 340.825 393.0792 340.825Q393.7667 340.825 394.28232 341.10626Q394.81357 341.3875 395.15732 341.91876Q395.50107 342.4344 395.68857 343.1844Q395.87607 343.9344 395.87607 345.21564Q395.87607 346.73126 395.56357 347.65314Q395.2667 348.575 394.6417 349.09064Q394.03232 349.59064 393.0792 349.59064Q391.84482 349.59064 391.12607 348.7Q390.28232 347.6375 390.28232 345.21564ZM391.36044 345.21564Q391.36044 347.325 391.86044 348.02814Q392.36044 348.73126 393.0792 348.73126Q393.81357 348.73126 394.29794 348.02814Q394.79794 347.325 394.79794 345.21564Q394.79794 343.09064 394.29794 342.40314Q393.81357 341.7 393.06357 341.7Q392.34482 341.7 391.90732 342.3094Q391.36044 343.09064 391.36044 345.21564ZM397.15732 346.8719L397.15732 345.8094L400.40732 345.8094L400.40732 346.8719L397.15732 346.8719ZM405.25107 349.45L404.2042 349.45L404.2042 342.73126Q403.81357 343.09064 403.18857 343.46564Q402.5792 343.825 402.09482 343.9969L402.09482 342.98126Q402.96982 342.5594 403.62607 341.98126Q404.29794 341.3875 404.5792 340.825L405.25107 340.825L405.25107 349.45ZM413.8292 348.4344L413.8292 349.45L408.1417 349.45Q408.1417 349.075 408.2667 348.71564Q408.48544 348.1375 408.9542 347.575Q409.43857 347.0125 410.34482 346.27814Q411.75107 345.1219 412.23544 344.45Q412.73544 343.77814 412.73544 343.1844Q412.73544 342.5594 412.28232 342.1375Q411.8292 341.7 411.11044 341.7Q410.34482 341.7 409.8917 342.15314Q409.43857 342.60626 409.42294 343.41876L408.34482 343.3094Q408.4542 342.09064 409.17294 341.46564Q409.90732 340.825 411.1417 340.825Q412.37607 340.825 413.09482 341.5125Q413.81357 342.2 413.81357 343.21564Q413.81357 343.73126 413.59482 344.23126Q413.3917 344.71564 412.8917 345.27814Q412.40732 345.825 411.28232 346.77814Q410.3292 347.575 410.04794 347.8719Q409.78232 348.15314 409.61044 348.4344L413.8292 348.4344Z" fill-rule="nonzero"/><path fill="#000000" d="M439.5334 349.45L438.4865 349.45L438.4865 342.73126Q438.0959 343.09064 437.4709 343.46564Q436.8615 343.825 436.37714 343.9969L436.37714 342.98126Q437.25214 342.5594 437.9084 341.98126Q438.58026 341.3875 438.8615 340.825L439.5334 340.825L439.5334 349.45ZM442.56464 345.21564Q442.56464 343.6844 442.87714 342.7625Q443.18964 341.825 443.799 341.325Q444.424 340.825 445.3615 340.825Q446.049 340.825 446.56464 341.10626Q447.0959 341.3875 447.43964 341.91876Q447.7834 342.4344 447.9709 343.1844Q448.1584 343.9344 448.1584 345.21564Q448.1584 346.73126 447.8459 347.65314Q447.549 348.575 446.924 349.09064Q446.31464 349.59064 445.3615 349.59064Q444.12714 349.59064 443.4084 348.7Q442.56464 347.6375 442.56464 345.21564ZM443.64276 345.21564Q443.64276 347.325 444.14276 348.02814Q444.64276 348.73126 445.3615 348.73126Q446.0959 348.73126 446.58026 348.02814Q447.08026 347.325 447.08026 345.21564Q447.08026 343.09064 446.58026 342.40314Q446.0959 341.7 445.3459 341.7Q444.62714 341.7 444.18964 342.3094Q443.64276 343.09064 443.64276 345.21564ZM449.56464 345.21564Q449.56464 343.6844 449.87714 342.7625Q450.18964 341.825 450.799 341.325Q451.424 340.825 452.3615 340.825Q453.049 340.825 453.56464 341.10626Q454.0959 341.3875 454.43964 341.91876Q454.7834 342.4344 454.9709 343.1844Q455.1584 343.9344 455.1584 345.21564Q455.1584 346.73126 454.8459 347.65314Q454.549 348.575 453.924 349.09064Q453.31464 349.59064 452.3615 349.59064Q451.12714 349.59064 450.4084 348.7Q449.56464 347.6375 449.56464 345.21564ZM450.64276 345.21564Q450.64276 347.325 451.14276 348.02814Q451.64276 348.73126 452.3615 348.73126Q453.0959 348.73126 453.58026 348.02814Q454.08026 347.325 454.08026 345.21564Q454.08026 343.09064 453.58026 342.40314Q453.0959 341.7 452.3459 341.7Q451.62714 341.7 451.18964 342.3094Q450.64276 343.09064 450.64276 345.21564ZM456.56464 345.21564Q456.56464 343.6844 456.87714 342.7625Q457.18964 341.825 457.799 341.325Q458.424 340.825 459.3615 340.825Q460.049 340.825 460.56464 341.10626Q461.0959 341.3875 461.43964 341.91876Q461.7834 342.4344 461.9709 343.1844Q462.1584 343.9344 462.1584 345.21564Q462.1584 346.73126 461.8459 347.65314Q461.549 348.575 460.924 349.09064Q460.31464 349.59064 459.3615 349.59064Q458.12714 349.59064 457.4084 348.7Q456.56464 347.6375 456.56464 345.21564ZM457.64276 345.21564Q457.64276 347.325 458.14276 348.02814Q458.64276 348.73126 459.3615 348.73126Q460.0959 348.73126 460.58026 348.02814Q461.08026 347.325 461.08026 345.21564Q461.08026 343.09064 460.58026 342.40314Q460.0959 341.7 459.3459 341.7Q458.62714 341.7 458.18964 342.3094Q457.64276 343.09064 457.64276 345.21564ZM463.56464 345.21564Q463.56464 343.6844 463.87714 342.7625Q464.18964 341.825 464.799 341.325Q465.424 340.825 466.3615 340.825Q467.049 340.825 467.56464 341.10626Q468.0959 341.3875 468.43964 341.91876Q468.7834 342.4344 468.9709 343.1844Q469.1584 343.9344 469.1584 345.21564Q469.1584 346.73126 468.8459 347.65314Q468.549 348.575 467.924 349.09064Q467.31464 349.59064 466.3615 349.59064Q465.12714 349.59064 464.4084 348.7Q463.56464 347.6375 463.56464 345.21564ZM464.64276 345.21564Q464.64276 347.325 465.14276 348.02814Q465.64276 348.73126 466.3615 348.73126Q467.0959 348.73126 467.58026 348.02814Q468.08026 347.325 468.08026 345.21564Q468.08026 343.09064 467.58026 342.40314Q467.0959 341.7 466.3459 341.7Q465.62714 341.7 465.18964 342.3094Q464.64276 343.09064 464.64276 345.21564ZM470.43964 346.8719L470.43964 345.8094L473.68964 345.8094L473.68964 346.8719L470.43964 346.8719ZM478.5334 349.45L477.4865 349.45L477.4865 342.73126Q477.0959 343.09064 476.4709 343.46564Q475.8615 343.825 475.37714 343.9969L475.37714 342.98126Q476.25214 342.5594 476.9084 341.98126Q477.58026 341.3875 477.8615 340.825L478.5334 340.825L478.5334 349.45ZM487.1115 348.4344L487.1115 349.45L481.424 349.45Q481.424 349.075 481.549 348.71564Q481.76776 348.1375 482.2365 347.575Q482.7209 347.0125 483.62714 346.27814Q485.0334 345.1219 485.51776 344.45Q486.01776 343.77814 486.01776 343.1844Q486.01776 342.5594 485.56464 342.1375Q485.1115 341.7 484.39276 341.7Q483.62714 341.7 483.174 342.15314Q482.7209 342.60626 482.70526 343.41876L481.62714 343.3094Q481.7365 342.09064 482.45526 341.46564Q483.18964 340.825 484.424 340.825Q485.6584 340.825 486.37714 341.5125Q487.0959 342.2 487.0959 343.21564Q487.0959 343.73126 486.87714 344.23126Q486.674 344.71564 486.174 345.27814Q485.68964 345.825 484.56464 346.77814Q483.6115 347.575 483.33026 347.8719Q483.06464 348.15314 482.89276 348.4344L487.1115 348.4344Z" fill-rule="nonzero"/><path fill="#000000" d="M505.81567 349.45L504.7688 349.45L504.7688 342.73126Q504.37817 343.09064 503.75317 343.46564Q503.1438 343.825 502.65942 343.9969L502.65942 342.98126Q503.53442 342.5594 504.19067 341.98126Q504.86255 341.3875 505.1438 340.825L505.81567 340.825L505.81567 349.45ZM508.84692 345.21564Q508.84692 343.6844 509.15942 342.7625Q509.47192 341.825 510.0813 341.325Q510.7063 340.825 511.6438 340.825Q512.3313 340.825 512.8469 341.10626Q513.3782 341.3875 513.7219 341.91876Q514.0657 342.4344 514.2532 343.1844Q514.4407 343.9344 514.4407 345.21564Q514.4407 346.73126 514.1282 347.65314Q513.8313 348.575 513.2063 349.09064Q512.5969 349.59064 511.6438 349.59064Q510.40942 349.59064 509.69067 348.7Q508.84692 347.6375 508.84692 345.21564ZM509.92505 345.21564Q509.92505 347.325 510.42505 348.02814Q510.92505 348.73126 511.6438 348.73126Q512.3782 348.73126 512.86255 348.02814Q513.36255 347.325 513.36255 345.21564Q513.36255 343.09064 512.86255 342.40314Q512.3782 341.7 511.62817 341.7Q510.90942 341.7 510.47192 342.3094Q509.92505 343.09064 509.92505 345.21564ZM515.8469 345.21564Q515.8469 343.6844 516.1594 342.7625Q516.4719 341.825 517.0813 341.325Q517.7063 340.825 518.6438 340.825Q519.3313 340.825 519.8469 341.10626Q520.3782 341.3875 520.7219 341.91876Q521.0657 342.4344 521.2532 343.1844Q521.4407 343.9344 521.4407 345.21564Q521.4407 346.73126 521.1282 347.65314Q520.8313 348.575 520.2063 349.09064Q519.5969 349.59064 518.6438 349.59064Q517.4094 349.59064 516.6907 348.7Q515.8469 347.6375 515.8469 345.21564ZM516.92505 345.21564Q516.92505 347.325 517.42505 348.02814Q517.92505 348.73126 518.6438 348.73126Q519.3782 348.73126 519.86255 348.02814Q520.36255 347.325 520.36255 345.21564Q520.36255 343.09064 519.86255 342.40314Q519.3782 341.7 518.6282 341.7Q517.9094 341.7 517.4719 342.3094Q516.92505 343.09064 516.92505 345.21564ZM522.8469 345.21564Q522.8469 343.6844 523.1594 342.7625Q523.4719 341.825 524.0813 341.325Q524.7063 340.825 525.6438 340.825Q526.3313 340.825 526.8469 341.10626Q527.3782 341.3875 527.7219 341.91876Q528.0657 342.4344 528.2532 343.1844Q528.4407 343.9344 528.4407 345.21564Q528.4407 346.73126 528.1282 347.65314Q527.8313 348.575 527.2063 349.09064Q526.5969 349.59064 525.6438 349.59064Q524.4094 349.59064 523.6907 348.7Q522.8469 347.6375 522.8469 345.21564ZM523.92505 345.21564Q523.92505 347.325 524.42505 348.02814Q524.92505 348.73126 525.6438 348.73126Q526.3782 348.73126 526.86255 348.02814Q527.36255 347.325 527.36255 345.21564Q527.36255 343.09064 526.86255 342.40314Q526.3782 341.7 525.6282 341.7Q524.9094 341.7 524.4719 342.3094Q523.92505 343.09064 523.92505 345.21564ZM529.8469 345.21564Q529.8469 343.6844 530.1594 342.7625Q530.4719 341.825 531.0813 341.325Q531.7063 340.825 532.6438 340.825Q533.3313 340.825 533.8469 341.10626Q534.3782 341.3875 534.7219 341.91876Q535.0657 342.4344 535.2532 343.1844Q535.4407 343.9344 535.4407 345.21564Q535.4407 346.73126 535.1282 347.65314Q534.8313 348.575 534.2063 349.09064Q533.5969 349.59064 532.6438 349.59064Q531.4094 349.59064 530.6907 348.7Q529.8469 347.6375 529.8469 345.21564ZM530.92505 345.21564Q530.92505 347.325 531.42505 348.02814Q531.92505 348.73126 532.6438 348.73126Q533.3782 348.73126 533.86255 348.02814Q534.36255 347.325 534.36255 345.21564Q534.36255 343.09064 533.86255 342.40314Q533.3782 341.7 532.6282 341.7Q531.9094 341.7 531.4719 342.3094Q530.92505 343.09064 530.92505 345.21564ZM536.8469 345.21564Q536.8469 343.6844 537.1594 342.7625Q537.4719 341.825 538.0813 341.325Q538.7063 340.825 539.6438 340.825Q540.3313 340.825 540.8469 341.10626Q541.3782 341.3875 541.7219 341.91876Q542.0657 342.4344 542.2532 343.1844Q542.4407 343.9344 542.4407 345.21564Q542.4407 346.73126 542.1282 347.65314Q541.8313 348.575 541.2063 349.09064Q540.5969 349.59064 539.6438 349.59064Q538.4094 349.59064 537.6907 348.7Q536.8469 347.6375 536.8469 345.21564ZM537.92505 345.21564Q537.92505 347.325 538.42505 348.02814Q538.92505 348.73126 539.6438 348.73126Q540.3782 348.73126 540.86255 348.02814Q541.36255 347.325 541.36255 345.21564Q541.36255 343.09064 540.86255 342.40314Q540.3782 341.7 539.6282 341.7Q538.9094 341.7 538.4719 342.3094Q537.92505 343.09064 537.92505 345.21564ZM543.7219 346.8719L543.7219 345.8094L546.9719 345.8094L546.9719 346.8719L543.7219 346.8719ZM551.8157 349.45L550.7688 349.45L550.7688 342.73126Q550.3782 343.09064 549.7532 343.46564Q549.1438 343.825 548.6594 343.9969L548.6594 342.98126Q549.5344 342.5594 550.1907 341.98126Q550.86255 341.3875 551.1438 340.825L551.8157 340.825L551.8157 349.45ZM560.3938 348.4344L560.3938 349.45L554.7063 349.45Q554.7063 349.075 554.8313 348.71564Q555.05005 348.1375 555.5188 347.575Q556.0032 347.0125 556.9094 346.27814Q558.3157 345.1219 558.80005 344.45Q559.30005 343.77814 559.30005 343.1844Q559.30005 342.5594 558.8469 342.1375Q558.3938 341.7 557.67505 341.7Q556.9094 341.7 556.4563 342.15314Q556.0032 342.60626 555.98755 343.41876L554.9094 343.3094Q555.0188 342.09064 555.73755 341.46564Q556.4719 340.825 557.7063 340.825Q558.9407 340.825 559.6594 341.5125Q560.3782 342.2 560.3782 343.21564Q560.3782 343.73126 560.1594 344.23126Q559.9563 344.71564 559.4563 345.27814Q558.9719 345.825 557.8469 346.77814Q556.8938 347.575 556.61255 347.8719Q556.3469 348.15314 556.17505 348.4344L560.3938 348.4344Z" fill-rule="nonzero"/><path fill="#4285f4" d="M252.0 56.916668C252.0 56.364384 252.44771 55.916668 253.0 55.916668L263.0 55.916668C263.55228 55.916668 264.0 56.364384 264.0 56.916668L264.0 66.916664C264.0 67.46895 263.55228 67.916664 263.0 67.916664L253.0 67.916664C252.44771 67.916664 252.0 67.46895 252.0 66.916664Z" fill-rule="nonzero"/><path fill="#1a1a1a" d="M272.40625 62.80729Q272.40625 61.072914 273.35938 60.24479Q274.15625 59.55729 275.3125 59.55729Q276.59375 59.55729 277.40625 60.40104Q278.23438 61.229164 278.23438 62.71354Q278.23438 63.916664 277.875 64.604164Q277.51562 65.291664 276.8125 65.68229Q276.125 66.05729 275.3125 66.05729Q274.01562 66.05729 273.20312 65.229164Q272.40625 64.385414 272.40625 62.80729ZM273.48438 62.80729Q273.48438 63.99479 274.0 64.58854Q274.53125 65.18229 275.3125 65.18229Q276.10938 65.18229 276.625 64.58854Q277.14062 63.99479 277.14062 62.77604Q277.14062 61.61979 276.60938 61.02604Q276.09375 60.43229 275.3125 60.43229Q274.53125 60.43229 274.0 61.02604Q273.48438 61.604164 273.48438 62.80729ZM279.76562 65.916664L279.76562 57.322914L280.82812 57.322914L280.82812 65.916664L279.76562 65.916664ZM286.82812 65.916664L286.82812 65.135414Q286.23438 66.05729 285.09375 66.05729Q284.34375 66.05729 283.71875 65.65104Q283.09375 65.229164 282.75 64.49479Q282.40625 63.760414 282.40625 62.80729Q282.40625 61.885414 282.71875 61.11979Q283.03125 60.354164 283.65625 59.96354Q284.28125 59.55729 285.04688 59.55729Q285.60938 59.55729 286.04688 59.791664Q286.48438 60.02604 286.76562 60.40104L286.76562 57.322914L287.8125 57.322914L287.8125 65.916664L286.82812 65.916664ZM283.5 62.80729Q283.5 64.010414 284.0 64.604164Q284.5 65.18229 285.1875 65.18229Q285.875 65.18229 286.35938 64.61979Q286.84375 64.05729 286.84375 62.90104Q286.84375 61.61979 286.34375 61.02604Q285.85938 60.43229 285.14062 60.43229Q284.4375 60.43229 283.96875 61.010414Q283.5 61.572914 283.5 62.80729Z" fill-rule="nonzero"/><path fill="#ea4335" d="M305.0 56.916668C305.0 56.364384 305.44772 55.916668 306.0 55.916668L316.0 55.916668C316.55228 55.916668 317.0 56.364384 317.0 56.916668L317.0 66.916664C317.0 67.46895 316.55228 67.916664 316.0 67.916664L306.0 67.916664C305.44772 67.916664 305.0 67.46895 305.0 66.916664Z" fill-rule="nonzero"/><path fill="#1a1a1a" d="M325.79688 65.916664L325.79688 59.697914L326.73438 59.697914L326.73438 60.572914Q327.42188 59.55729 328.71875 59.55729Q329.28125 59.55729 329.75 59.760414Q330.23438 59.96354 330.46875 60.291664Q330.70312 60.61979 330.79688 61.05729Q330.84375 61.354164 330.84375 62.08854L330.84375 65.916664L329.79688 65.916664L329.79688 62.135414Q329.79688 61.479164 329.67188 61.166664Q329.54688 60.854164 329.23438 60.666664Q328.92188 60.46354 328.5 60.46354Q327.82812 60.46354 327.32812 60.90104Q326.84375 61.322914 326.84375 62.510414L326.84375 65.916664L325.79688 65.916664ZM337.04688 63.916664L338.14062 64.041664Q337.89062 64.99479 337.1875 65.52604Q336.48438 66.05729 335.40625 66.05729Q334.04688 66.05729 333.23438 65.21354Q332.4375 64.36979 332.4375 62.854164Q332.4375 61.291664 333.25 60.43229Q334.0625 59.55729 335.34375 59.55729Q336.59375 59.55729 337.375 60.40104Q338.17188 61.24479 338.17188 62.791664Q338.17188 62.885414 338.17188 63.072914L333.53125 63.072914Q333.59375 64.104164 334.10938 64.65104Q334.625 65.18229 335.40625 65.18229Q335.98438 65.18229 336.39062 64.885414Q336.8125 64.572914 337.04688 63.916664ZM333.59375 62.21354L337.0625 62.21354Q337.0 61.416664 336.67188 61.02604Q336.15625 60.416664 335.35938 60.416664Q334.625 60.416664 334.125 60.90104Q333.64062 61.385414 333.59375 62.21354ZM340.9375 65.916664L339.03125 59.697914L340.125 59.697914L341.10938 63.291664L341.48438 64.61979Q341.51562 64.52604 341.8125 63.33854L342.79688 59.697914L343.875 59.697914L344.8125 63.30729L345.125 64.49479L345.48438 63.291664L346.54688 59.697914L347.57812 59.697914L345.625 65.916664L344.53125 65.916664L343.54688 62.18229L343.29688 61.135414L342.04688 65.916664L340.9375 65.916664Z" fill-rule="nonzero"/><path fill="#757575" d="M20.096874 37.55L20.096874 23.2375L25.4875 23.2375Q26.925 23.2375 27.675 23.3625Q28.721874 23.55 29.440624 24.05Q30.159374 24.534374 30.58125 25.425Q31.01875 26.315624 31.01875 27.378124Q31.01875 29.20625 29.846874 30.471874Q28.690624 31.721874 25.659374 31.721874L21.9875 31.721874L21.9875 37.55L20.096874 37.55ZM21.9875 30.034374L25.690624 30.034374Q27.51875 30.034374 28.284374 29.3625Q29.065624 28.675 29.065624 27.425Q29.065624 26.534374 28.6125 25.89375Q28.159374 25.253124 27.425 25.05Q26.940624 24.925 25.64375 24.925L21.9875 24.925L21.9875 30.034374ZM39.971874 34.20625L41.784374 34.440624Q41.3625 36.01875 40.190624 36.909374Q39.034374 37.784374 37.221874 37.784374Q34.95625 37.784374 33.6125 36.39375Q32.284374 34.9875 32.284374 32.45625Q32.284374 29.83125 33.628124 28.39375Q34.971874 26.940624 37.128124 26.940624Q39.20625 26.940624 40.51875 28.3625Q41.846874 29.76875 41.846874 32.346874Q41.846874 32.503124 41.83125 32.815624L34.096874 32.815624Q34.190624 34.51875 35.065624 35.425Q35.940624 36.33125 37.2375 36.33125Q38.20625 36.33125 38.878124 35.83125Q39.565624 35.315624 39.971874 34.20625ZM34.190624 31.3625L39.9875 31.3625Q39.878124 30.065624 39.33125 29.409374Q38.4875 28.39375 37.14375 28.39375Q35.940624 28.39375 35.1125 29.20625Q34.284374 30.003124 34.190624 31.3625ZM43.846874 37.55L43.846874 27.175L45.425 27.175L45.425 28.753124Q46.034374 27.64375 46.55 27.3Q47.065624 26.940624 47.675 26.940624Q48.565624 26.940624 49.4875 27.503124L48.878124 29.14375Q48.2375 28.753124 47.596874 28.753124Q47.01875 28.753124 46.55 29.1125Q46.096874 29.45625 45.89375 30.065624Q45.6125 31.003124 45.6125 32.1125L45.6125 37.55L43.846874 37.55ZM51.284374 37.55L51.284374 28.55L49.7375 28.55L49.7375 27.175L51.284374 27.175L51.284374 26.08125Q51.284374 25.034374 51.471874 24.51875Q51.721874 23.83125 52.3625 23.409374Q53.003124 22.9875 54.159374 22.9875Q54.909374 22.9875 55.8 23.159374L55.534374 24.690624Q54.9875 24.596874 54.503124 24.596874Q53.70625 24.596874 53.3625 24.940624Q53.034374 25.284374 53.034374 26.221874L53.034374 27.175L55.065624 27.175L55.065624 28.55L53.034374 28.55L53.034374 37.55L51.284374 37.55ZM56.221874 32.3625Q56.221874 29.4875 57.815624 28.096874Q59.159374 26.940624 61.08125 26.940624Q63.221874 26.940624 64.56563 28.346874Q65.925 29.753124 65.925 32.221874Q65.925 34.221874 65.33125 35.378124Q64.7375 36.51875 63.58125 37.159374Q62.440624 37.784374 61.08125 37.784374Q58.89375 37.784374 57.55 36.39375Q56.221874 34.9875 56.221874 32.3625ZM58.01875 32.3625Q58.01875 34.3625 58.878124 35.346874Q59.753124 36.33125 61.08125 36.33125Q62.39375 36.33125 63.253124 35.346874Q64.12813 34.346874 64.12813 32.3Q64.12813 30.378124 63.253124 29.39375Q62.378124 28.39375 61.08125 28.39375Q59.753124 28.39375 58.878124 29.39375Q58.01875 30.378124 58.01875 32.3625ZM67.84688 37.55L67.84688 27.175L69.425 27.175L69.425 28.753124Q70.03438 27.64375 70.55 27.3Q71.06563 26.940624 71.675 26.940624Q72.56563 26.940624 73.4875 27.503124L72.87813 29.14375Q72.2375 28.753124 71.59688 28.753124Q71.01875 28.753124 70.55 29.1125Q70.09688 29.45625 69.89375 30.065624Q69.6125 31.003124 69.6125 32.1125L69.6125 37.55L67.84688 37.55ZM74.8625 37.55L74.8625 27.175L76.44063 27.175L76.44063 28.628124Q76.925 27.878124 77.7375 27.409374Q78.55 26.940624 79.58125 26.940624Q80.7375 26.940624 81.47188 27.425Q82.20625 27.89375 82.51875 28.753124Q83.75313 26.940624 85.72188 26.940624Q87.26875 26.940624 88.09688 27.8Q88.925 28.659374 88.925 30.425L88.925 37.55L87.175 37.55L87.175 31.01875Q87.175 29.95625 87.00313 29.503124Q86.83125 29.034374 86.37813 28.753124Q85.94063 28.471874 85.33125 28.471874Q84.2375 28.471874 83.50313 29.20625Q82.78438 29.925 82.78438 31.51875L82.78438 37.55L81.03438 37.55L81.03438 30.815624Q81.03438 29.64375 80.59688 29.065624Q80.175 28.471874 79.19063 28.471874Q78.45625 28.471874 77.81563 28.8625Q77.19063 29.253124 76.90938 30.003124Q76.62813 30.753124 76.62813 32.175L76.62813 37.55L74.8625 37.55ZM97.64375 36.26875Q96.65938 37.096874 95.75313 37.440624Q94.84688 37.784374 93.81563 37.784374Q92.1125 37.784374 91.19063 36.95625Q90.26875 36.1125 90.26875 34.815624Q90.26875 34.05 90.6125 33.425Q90.97188 32.8 91.53438 32.425Q92.09688 32.034374 92.8 31.83125Q93.31563 31.70625 94.3625 31.565624Q96.4875 31.315624 97.4875 30.971874Q97.50313 30.6125 97.50313 30.503124Q97.50313 29.440624 97.00313 28.9875Q96.33125 28.39375 95.00313 28.39375Q93.75313 28.39375 93.15938 28.83125Q92.58125 29.26875 92.3 30.378124L90.58125 30.14375Q90.81563 29.034374 91.34688 28.3625Q91.87813 27.675 92.89375 27.315624Q93.90938 26.940624 95.25313 26.940624Q96.58125 26.940624 97.40938 27.253124Q98.2375 27.565624 98.62813 28.05Q99.01875 28.51875 99.175 29.2375Q99.26875 29.690624 99.26875 30.8625L99.26875 33.20625Q99.26875 35.659374 99.37813 36.315624Q99.4875 36.95625 99.83125 37.55L97.9875 37.55Q97.72188 37.003124 97.64375 36.26875ZM97.4875 32.346874Q96.53438 32.7375 94.6125 33.003124Q93.53438 33.159374 93.08125 33.3625Q92.64375 33.55 92.39375 33.925Q92.14375 34.3 92.14375 34.76875Q92.14375 35.471874 92.675 35.940624Q93.20625 36.409374 94.2375 36.409374Q95.25313 36.409374 96.03438 35.971874Q96.83125 35.51875 97.20625 34.753124Q97.4875 34.14375 97.4875 32.9875L97.4875 32.346874ZM101.8625 37.55L101.8625 27.175L103.45625 27.175L103.45625 28.659374Q104.59688 26.940624 106.75313 26.940624Q107.69063 26.940624 108.47188 27.284374Q109.26875 27.6125 109.65938 28.159374Q110.05 28.70625 110.20625 29.45625Q110.3 29.95625 110.3 31.175L110.3 37.55L108.53438 37.55L108.53438 31.2375Q108.53438 30.159374 108.33125 29.628124Q108.12813 29.096874 107.59688 28.784374Q107.08125 28.471874 106.37813 28.471874Q105.25313 28.471874 104.44063 29.190624Q103.62813 29.89375 103.62813 31.878124L103.62813 37.55L101.8625 37.55ZM118.64375 33.753124L120.3625 33.971874Q120.08125 35.76875 118.90938 36.784374Q117.75313 37.784374 116.05 37.784374Q113.925 37.784374 112.62813 36.39375Q111.33125 35.003124 111.33125 32.409374Q111.33125 30.721874 111.87813 29.471874Q112.44063 28.20625 113.58125 27.58125Q114.72188 26.940624 116.06563 26.940624Q117.75313 26.940624 118.81563 27.8Q119.89375 28.659374 120.20625 30.221874L118.4875 30.4875Q118.25313 29.440624 117.62813 28.925Q117.00313 28.39375 116.12813 28.39375Q114.8 28.39375 113.97188 29.346874Q113.14375 30.3 113.14375 32.346874Q113.14375 34.440624 113.94063 35.39375Q114.7375 36.33125 116.03438 36.33125Q117.06563 36.33125 117.75313 35.70625Q118.45625 35.065624 118.64375 33.753124ZM128.97188 34.20625L130.78438 34.440624Q130.3625 36.01875 129.19063 36.909374Q128.03438 37.784374 126.22188 37.784374Q123.95625 37.784374 122.6125 36.39375Q121.28438 34.9875 121.28438 32.45625Q121.28438 29.83125 122.62813 28.39375Q123.97188 26.940624 126.12813 26.940624Q128.20625 26.940624 129.51875 28.3625Q130.84688 29.76875 130.84688 32.346874Q130.84688 32.503124 130.83125 32.815624L123.09688 32.815624Q123.19063 34.51875 124.06563 35.425Q124.94063 36.33125 126.2375 36.33125Q127.20625 36.33125 127.87813 35.83125Q128.56563 35.315624 128.97188 34.20625ZM123.19063 31.3625L128.9875 31.3625Q128.87813 30.065624 128.33125 29.409374Q127.4875 28.39375 126.14375 28.39375Q124.94063 28.39375 124.1125 29.20625Q123.28438 30.003124 123.19063 31.3625ZM138.22188 32.3625Q138.22188 29.4875 139.81563 28.096874Q141.15938 26.940624 143.08125 26.940624Q145.22188 26.940624 146.56563 28.346874Q147.925 29.753124 147.925 32.221874Q147.925 34.221874 147.33125 35.378124Q146.7375 36.51875 145.58125 37.159374Q144.44063 37.784374 143.08125 37.784374Q140.89375 37.784374 139.55 36.39375Q138.22188 34.9875 138.22188 32.3625ZM140.01875 32.3625Q140.01875 34.3625 140.87813 35.346874Q141.75313 36.33125 143.08125 36.33125Q144.39375 36.33125 145.25313 35.346874Q146.12813 34.346874 146.12813 32.3Q146.12813 30.378124 145.25313 29.39375Q144.37813 28.39375 143.08125 28.39375Q141.75313 28.39375 140.87813 29.39375Q140.01875 30.378124 140.01875 32.3625ZM150.28438 37.55L150.28438 28.55L148.7375 28.55L148.7375 27.175L150.28438 27.175L150.28438 26.08125Q150.28438 25.034374 150.47188 24.51875Q150.72188 23.83125 151.3625 23.409374Q152.00313 22.9875 153.15938 22.9875Q153.90938 22.9875 154.8 23.159374L154.53438 24.690624Q153.9875 24.596874 153.50313 24.596874Q152.70625 24.596874 152.3625 24.940624Q152.03438 25.284374 152.03438 26.221874L152.03438 27.175L154.06563 27.175L154.06563 28.55L152.03438 28.55L152.03438 37.55L150.28438 37.55ZM161.51875 30.58125Q161.51875 27.01875 163.425 25.003124Q165.34688 22.971874 168.37813 22.971874Q170.3625 22.971874 171.94063 23.925Q173.53438 24.878124 174.3625 26.58125Q175.20625 28.26875 175.20625 30.409374Q175.20625 32.58125 174.33125 34.3Q173.45625 36.01875 171.83125 36.909374Q170.22188 37.8 168.3625 37.8Q166.34688 37.8 164.75313 36.83125Q163.15938 35.846874 162.33125 34.159374Q161.51875 32.45625 161.51875 30.58125ZM163.47188 30.6125Q163.47188 33.190624 164.8625 34.690624Q166.25313 36.175 168.34688 36.175Q170.4875 36.175 171.8625 34.675Q173.25313 33.159374 173.25313 30.39375Q173.25313 28.659374 172.65938 27.3625Q172.08125 26.05 170.94063 25.33125Q169.8 24.6125 168.37813 24.6125Q166.37813 24.6125 164.925 26.003124Q163.47188 27.378124 163.47188 30.6125ZM177.83125 37.55L177.83125 23.2375L179.58125 23.2375L179.58125 37.55L177.83125 37.55ZM188.59688 37.55L188.59688 36.2375Q187.6125 37.784374 185.69063 37.784374Q184.45625 37.784374 183.40938 37.096874Q182.37813 36.409374 181.8 35.190624Q181.2375 33.971874 181.2375 32.378124Q181.2375 30.815624 181.75313 29.55Q182.26875 28.284374 183.3 27.6125Q184.34688 26.940624 185.6125 26.940624Q186.55 26.940624 187.28438 27.346874Q188.01875 27.7375 188.4875 28.3625L188.4875 23.2375L190.22188 23.2375L190.22188 37.55L188.59688 37.55ZM183.03438 32.378124Q183.03438 34.3625 183.87813 35.346874Q184.72188 36.33125 185.8625 36.33125Q187.01875 36.33125 187.81563 35.39375Q188.62813 34.45625 188.62813 32.51875Q188.62813 30.39375 187.8 29.39375Q186.9875 28.39375 185.78438 28.39375Q184.6125 28.39375 183.81563 29.3625Q183.03438 30.315624 183.03438 32.378124ZM201.75313 37.55L197.8 27.175L199.65938 27.175L201.89375 33.39375Q202.25313 34.39375 202.55 35.471874Q202.78438 34.659374 203.20625 33.503124L205.50313 27.175L207.31563 27.175L203.39375 37.55L201.75313 37.55ZM207.15938 34.45625L208.90938 34.175Q209.05 35.221874 209.72188 35.784374Q210.39375 36.33125 211.59688 36.33125Q212.8 36.33125 213.37813 35.846874Q213.97188 35.346874 213.97188 34.690624Q213.97188 34.096874 213.45625 33.753124Q213.09688 33.51875 211.65938 33.159374Q209.72188 32.659374 208.97188 32.315624Q208.2375 31.95625 207.84688 31.33125Q207.45625 30.690624 207.45625 29.925Q207.45625 29.2375 207.76875 28.64375Q208.09688 28.05 208.64375 27.659374Q209.05 27.3625 209.75313 27.159374Q210.47188 26.940624 211.28438 26.940624Q212.50313 26.940624 213.425 27.3Q214.34688 27.64375 214.78438 28.253124Q215.22188 28.846874 215.39375 29.846874L213.675 30.08125Q213.55 29.284374 212.9875 28.846874Q212.425 28.39375 211.40938 28.39375Q210.19063 28.39375 209.675 28.8Q209.15938 29.190624 209.15938 29.721874Q209.15938 30.065624 209.37813 30.346874Q209.58125 30.628124 210.05 30.815624Q210.31563 30.909374 211.59688 31.253124Q213.47188 31.753124 214.20625 32.08125Q214.94063 32.39375 215.3625 33.003124Q215.78438 33.596874 215.78438 34.503124Q215.78438 35.378124 215.26875 36.159374Q214.75313 36.940624 213.78438 37.3625Q212.81563 37.784374 211.59688 37.784374Q209.58125 37.784374 208.51875 36.940624Q207.45625 36.096874 207.15938 34.45625ZM224.08125 37.55L224.08125 23.2375L226.01875 23.2375L233.53438 34.471874L233.53438 23.2375L235.34688 23.2375L235.34688 37.55L233.40938 37.55L225.89375 26.3L225.89375 37.55L224.08125 37.55ZM243.97188 34.20625L245.78438 34.440624Q245.3625 36.01875 244.19063 36.909374Q243.03438 37.784374 241.22188 37.784374Q238.95625 37.784374 237.6125 36.39375Q236.28438 34.9875 236.28438 32.45625Q236.28438 29.83125 237.62813 28.39375Q238.97188 26.940624 241.12813 26.940624Q243.20625 26.940624 244.51875 28.3625Q245.84688 29.76875 245.84688 32.346874Q245.84688 32.503124 245.83125 32.815624L238.09688 32.815624Q238.19063 34.51875 239.06563 35.425Q239.94063 36.33125 241.2375 36.33125Q242.20625 36.33125 242.87813 35.83125Q243.56563 35.315624 243.97188 34.20625ZM238.19063 31.3625L243.9875 31.3625Q243.87813 30.065624 243.33125 29.409374Q242.4875 28.39375 241.14375 28.39375Q239.94063 28.39375 239.1125 29.20625Q238.28438 30.003124 238.19063 31.3625ZM249.78438 37.55L246.6125 27.175L248.425 27.175L250.08125 33.159374L250.69063 35.39375Q250.7375 35.221874 251.22188 33.253124L252.87813 27.175L254.69063 27.175L256.2375 33.190624L256.7531 35.175L257.34686 33.175L259.1281 27.175L260.83124 27.175L257.59686 37.55L255.76875 37.55L254.1125 31.33125L253.72188 29.565624L251.6125 37.55L249.78438 37.55ZM267.51874 37.55L273.01874 23.2375L275.0656 23.2375L280.925 37.55L278.76874 37.55L277.09686 33.20625L271.1125 33.20625L269.53436 37.55L267.51874 37.55ZM271.65936 31.675L276.5031 31.675L275.01874 27.70625Q274.33124 25.89375 274.0031 24.7375Q273.72186 26.1125 273.22186 27.471874L271.65936 31.675ZM282.09686 37.55L282.09686 23.2375L287.4875 23.2375Q288.925 23.2375 289.675 23.3625Q290.72186 23.55 291.4406 24.05Q292.15936 24.534374 292.58124 25.425Q293.01874 26.315624 293.01874 27.378124Q293.01874 29.20625 291.84686 30.471874Q290.6906 31.721874 287.65936 31.721874L283.9875 31.721874L283.9875 37.55L282.09686 37.55ZM283.9875 30.034374L287.6906 30.034374Q289.51874 30.034374 290.28436 29.3625Q291.0656 28.675 291.0656 27.425Q291.0656 26.534374 290.6125 25.89375Q290.15936 25.253124 289.425 25.05Q288.9406 24.925 287.64374 24.925L283.9875 24.925L283.9875 30.034374ZM295.40936 37.55L295.40936 23.2375L297.3156 23.2375L297.3156 37.55L295.40936 37.55Z" fill-rule="nonzero"/></svg>